# xmcd CD database file
#
# Track frame offsets:
#	150
#	27135
#	42849
#	58097
#	74704
#	91489
#	115358
#	132023
#	148865
#	162951
#	179528
#	195768
#	221367
#	233932
#	251100
#	261076
#
# Disc length: 3574 seconds
#
# Revision: 0
# Processed by: cddbd v1.5.1PL0 Copyright (c) Steve Scherf et al.
# Submitted via: CDex 1.51
#
DISCID=ec0df410
DTITLE=Opus 4, Antigua Jazz Band and Sandra Mianovich - Spirituals Blues and Jazz [CD #1)
DYEAR=2004
DGENRE=Jazz
TTITLE0=Nobody knows the trouble I've seen
TTITLE1=Go down moses
TTITLE2=Joshua fit the battle of jericho
TTITLE3=C jam blues
TTITLE4=Mean mistreater mama
TTITLE5=Washboard wiggles
TTITLE6=Sixteen tons
TTITLE7=Down by the riverside
TTITLE8=Swing low, sweet chariot
TTITLE9=Stain doll
TTITLE10=Crazy rhythm
TTITLE11=The man I love
TTITLE12=It don't mean a thing
TTITLE13=Ol' man river
TTITLE14=Hallelujah!
TTITLE15=The animals a' comin'
EXTD=YEAR: 2004
EXTT0=
EXTT1=
EXTT2=
EXTT3=
EXTT4=
EXTT5=
EXTT6=
EXTT7=
EXTT8=
EXTT9=
EXTT10=
EXTT11=
EXTT12=
EXTT13=
EXTT14=
EXTT15=
PLAYORDER=
